<svg width="48" height="48" viewBox="0 0 100 100" fill="none" xmlns="http://www.w3.org/2000/svg">
            <defs>
                <linearGradient id="bgOrangeGradient48" x1="0%" y1="0%" x2="0%" y2="100%">
                    <stop offset="0%" style="stop-color:#fdd085;stop-opacity:1" />
                    <stop offset="100%" style="stop-color:#fc8c03;stop-opacity:1" />
                </linearGradient>
                <linearGradient id="tabGreyGradientInverted48" x1="0%" y1="0%" x2="0%" y2="100%">
                    <stop offset="0%" style="stop-color:#7f8c8d;stop-opacity:1" /> 
                    <stop offset="100%" style="stop-color:#C0C0C0;stop-opacity:1" />
                </linearGradient>
            </defs>
            <rect width="100" height="100" rx="20" fill="url(#bgOrangeGradient48)" stroke="#000000" stroke-width="3"/> 
            <g transform="translate(50 50)">
                <g transform="scale(1.05) translate(-50 -49)"> 
                    <path d="M18 78 V28 C18 23.5817 21.5817 20 26 20 H74 C78.4183 20 82 23.5817 82 28 V60 C82 71.0457 73.0457 78 62 78 H18 Z" 
                          fill="url(#tabGreyGradientInverted48)" stroke="#6a737b" stroke-width="1.5"/> 
                    <rect x="25" y="27" width="50" height="10" rx="2.5" fill="#bdc3c7" stroke="#a8b0b8" stroke-width="1"/> 
                </g>
            </g>
            <g transform="translate(50 50) scale(1.3)"> 
                <circle cx="0" cy="-8" r="7" fill="#000000"/> 
                <circle cx="0" cy="-8" r="2.5" fill="white"/> <rect x="-1.5" y="-2" width="3" height="12" rx="1" fill="#000000"/>
            </g>
        </svg>