<svg width="16" height="16" viewBox="0 0 100 100" fill="none" xmlns="http://www.w3.org/2000/svg">
             <defs>
                <linearGradient id="bgOrangeGradient16" x1="0%" y1="0%" x2="0%" y2="100%">
                    <stop offset="0%" style="stop-color:#fdd085;stop-opacity:1" />
                    <stop offset="100%" style="stop-color:#fc8c03;stop-opacity:1" />
                </linearGradient>
                <linearGradient id="tabGreyGradientInverted16" x1="0%" y1="0%" x2="0%" y2="100%">
                    <stop offset="0%" style="stop-color:#7f8c8d;stop-opacity:1" /> 
                    <stop offset="100%" style="stop-color:#C0C0C0;stop-opacity:1" />
                </linearGradient>
            </defs>
            <rect width="100" height="100" rx="18" fill="url(#bgOrangeGradient16)" stroke="#000000" stroke-width="5"/> 
            <g transform="translate(50 50)">
                 <g transform="scale(1.0) translate(-50 -49)"> 
                    <path d="M18 78 V28 C18 24, 22 20, 27 20 H73 C78 20, 82 24, 82 28 V60 C82 70, 72 78,60 78 H18 Z" 
                          fill="url(#tabGreyGradientInverted16)" stroke="#6a737b" stroke-width="2"/> 
                    <rect x="25" y="29" width="50" height="12" rx="2.5" fill="#bdc3c7" stroke="#a8b0b8" stroke-width="1.5"/>
                </g>
            </g>
            <g transform="translate(50 50) scale(1.5)"> 
                 <circle cx="0" cy="-7" r="6" fill="#000000"/> 
                 <circle cx="0" cy="-7" r="2" fill="white"/> <rect x="-1.25" y="-1" width="2.5" height="9" rx="0.75" fill="#000000"/>
            </g>
        </svg>